<?xml version="1.0" encoding="utf-8"?>
<!-- Generator: Adobe Illustrator 24.1.0, SVG Export Plug-In . SVG Version: 6.00 Build 0)  -->
<svg version="1.1" id="Capa_1" xmlns="http://www.w3.org/2000/svg" xmlns:xlink="http://www.w3.org/1999/xlink" x="0px" y="0px"
	 viewBox="0 0 476.9 476.9" style="enable-background:new 0 0 476.9 476.9;" xml:space="preserve">
<style type="text/css">
	.st0{fill:#FFFFFF;}
</style>
<g>
	<g>
		<path class="st0" d="M461.8,209.4L249.6,4.5c-6.2-6-16-6-22.2,0L15.1,209.4c-3.1,3-4.9,7.2-4.9,11.5c0,8.8,7.2,16,16,16h28.2v224
			c0,8.8,7.2,16,16,16h112c8.8,0,16-7.2,16-16v-128h80v128c0,8.8,7.2,16,16,16h112c8.8,0,16-7.2,16-16v-224h28.2
			c4.3,0,8.5-1.8,11.5-4.9C468.3,225.7,468.1,215.5,461.8,209.4z M422.5,220.9c-8.8,0-16,7.2-16,16v224h-112v-128
			c0-8.8-7.2-16-16-16h-80c-8.8,0-16,7.2-16,16v128h-112v-224c0-8.8-7.2-16-16-16H26.3L238.5,16l212.3,204.9L422.5,220.9
			L422.5,220.9z"/>
	</g>
</g>
</svg>
